<?xml version="1.0" encoding="UTF-8" standalone="no"?>
<!-- Created with Inkscape (http://www.inkscape.org/) -->
<svg
   xmlns:dc="http://purl.org/dc/elements/1.1/"
   xmlns:cc="http://web.resource.org/cc/"
   xmlns:rdf="http://www.w3.org/1999/02/22-rdf-syntax-ns#"
   xmlns:svg="http://www.w3.org/2000/svg"
   xmlns="http://www.w3.org/2000/svg"
   xmlns:sodipodi="http://sodipodi.sourceforge.net/DTD/sodipodi-0.dtd"
   xmlns:inkscape="http://www.inkscape.org/namespaces/inkscape"
   id="svg2226"
   sodipodi:version="0.32"
   inkscape:version="0.45.1"
   width="159.01276"
   height="161.04309"
   version="1.0"
   sodipodi:docbase="C:\Documents and Settings\Sophie\Desktop"
   sodipodi:docname="RHbear.svg"
   inkscape:output_extension="org.inkscape.output.svg.inkscape">
  <metadata
     id="metadata2231">
    <rdf:RDF>
      <cc:Work
         rdf:about="">
        <dc:format>image/svg+xml</dc:format>
        <dc:type
           rdf:resource="http://purl.org/dc/dcmitype/StillImage" />
      </cc:Work>
    </rdf:RDF>
  </metadata>
  <defs
     id="defs2229" />
  <sodipodi:namedview
     inkscape:window-height="1009"
     inkscape:window-width="1280"
     inkscape:pageshadow="2"
     inkscape:pageopacity="0.0"
     guidetolerance="10.0"
     gridtolerance="10.0"
     objecttolerance="10.0"
     borderopacity="1.0"
     bordercolor="#666666"
     pagecolor="#ffffff"
     id="base"
     inkscape:zoom="1.6928968"
     inkscape:cx="143.03117"
     inkscape:cy="-36.661086"
     inkscape:window-x="0"
     inkscape:window-y="0"
     inkscape:current-layer="svg2226"
     showgrid="true" />
  <path
     style="fill:#0e0e0e"
     d="M 63.681864,159.03841 C 44.541074,154.09958 28.955284,141.54004 20.304804,124.08373 C 12.565754,108.46666 10.931204,92.238568 15.405624,75.443902 L 17.041394,69.304076 L 11.815424,64.213821 C 2.9972655,55.624668 -1.6283145,42.232733 0.52305547,31.520265 C 2.9474155,19.448504 10.393764,9.4382504 21.181864,3.7483003 C 26.814634,0.7774143 27.658379,0.3806733 37.515729,0.3806733 C 47.112989,0.3806733 48.644644,0.8273921 53.564644,3.4178619 C 61.302834,7.4921574 67.972484,14.153431 71.273804,21.104787 L 74.113304,27.083727 L 80.261724,27.083727 L 86.410144,27.083727 L 88.149734,22.52869 C 90.567854,16.196911 99.272664,7.1175794 106.35408,3.5410766 C 111.6423,0.8702408 112.51697,0.0063877972 121.59115,3.0297165e-005 C 130.33842,-0.0060982028 132.89279,0.9170049 137.857,3.2441347 C 145.46688,6.8115094 151.948,13.338595 155.81633,20.651527 C 158.18417,25.127832 159.23719,31.577794 158.97301,38.02353 C 158.69712,44.755059 158.66014,48.355383 156.34129,53.300629 C 154.89359,56.388037 151.4823,61.232548 148.50366,64.196206 L 143.08891,69.583727 L 144.97748,76.083727 C 147.8527,85.979512 147.76726,102.39397 144.79024,112.05851 C 142.0161,121.06437 138.70243,127.7886 133.71031,134.5423 C 118.19775,155.52883 89.281524,165.64379 63.681864,159.03841 z M 71.395414,139.04042 C 69.148354,130.2166 67.001134,123.5791 66.623834,124.29042 C 65.003074,127.34598 58.384384,151.11959 58.986764,151.72196 C 60.028304,152.76351 68.851734,154.94167 72.331424,155.01624 L 75.480994,155.08373 L 71.395414,139.04042 z M 99.247734,152.62066 C 101.21565,151.7984 102.61791,150.77871 102.36384,150.35469 C 102.10977,149.93066 100.01973,143.57889 97.719314,136.23964 C 95.418874,128.90039 93.337214,123.09504 93.093394,123.33887 C 92.849564,123.58269 90.676774,130.88448 88.264964,139.56507 L 83.879854,155.34795 L 89.774754,154.73181 C 93.016944,154.39293 97.279784,153.44291 99.247734,152.62066 z M 88.675694,116.33373 C 88.680164,115.42678 86.236134,115.08373 79.770124,115.08373 L 70.858394,115.08373 L 74.769064,130.33373 C 76.919934,138.72123 78.959344,146.25873 79.301074,147.08373 C 79.850094,148.40916 88.660014,119.51146 88.675694,116.33373 z M 49.387184,145.7582 C 49.107424,145.02916 47.184074,138.95416 45.113074,132.2582 C 43.042074,125.56224 41.031024,120.08373 40.644074,120.08373 C 40.257114,120.08373 38.095704,122.89096 35.840924,126.32201 L 31.741324,132.5603 L 35.461594,136.44098 C 39.477714,140.63027 47.646594,147.01866 49.038854,147.05894 C 49.510194,147.07257 49.666944,146.48724 49.387184,145.7582 z M 115.58746,144.43337 C 121.06168,140.3969 127.68185,133.81873 127.68185,132.41572 C 127.68185,131.72734 125.9243,128.38444 123.77618,124.98706 L 119.87051,118.81 L 116.23775,130.19686 C 114.23973,136.45964 112.19569,142.82123 111.69544,144.33373 C 110.5658,147.74917 111.07299,147.76216 115.58746,144.43337 z M 59.449674,128.33373 L 63.425284,115.08373 L 54.480244,115.08373 C 47.339604,115.08373 45.600434,115.36519 45.858534,116.47903 C 47.250104,122.48433 54.315594,142.79004 54.827964,142.25651 C 55.183314,141.88648 57.263084,135.62123 59.449674,128.33373 z M 114.38435,115.4529 C 114.13646,115.20501 110.10238,115.13304 105.41972,115.29296 L 96.905794,115.58373 L 101.45801,129.58373 L 106.01024,143.58373 L 110.42265,129.74367 C 112.84947,122.13163 114.63224,115.70079 114.38435,115.4529 z M 32.431864,121.65508 C 34.219364,118.70051 35.681864,116.01328 35.681864,115.68344 C 35.681864,115.3536 32.756864,115.08373 29.181864,115.08373 C 25.375774,115.08373 22.681864,115.51196 22.681864,116.11697 C 22.681864,117.71528 27.622904,127.08731 28.448704,127.05537 C 28.851944,127.03977 30.644364,124.60964 32.431864,121.65508 z M 136.22448,119.63594 C 137.02603,117.71755 137.68185,115.90851 137.68185,115.61585 C 137.68185,115.32318 134.75685,115.08373 131.18185,115.08373 C 127.60685,115.08373 124.68185,115.29999 124.68185,115.56431 C 124.68185,115.82863 126.29755,118.57065 128.2723,121.65768 C 131.74231,127.08216 131.91148,127.20091 133.31494,125.19718 C 134.11363,124.05688 135.42293,121.55432 136.22448,119.63594 z M 23.513864,104.19679 C 21.131264,101.50897 19.035604,99.442726 18.856844,99.605136 C 18.678084,99.767546 18.841684,101.96667 19.220384,104.49208 C 19.905474,109.06058 19.928954,109.08373 23.877404,109.08373 L 27.845864,109.08373 L 23.513864,104.19679 z M 43.313334,106.83373 C 42.073374,102.19778 41.519234,74.23104 42.486074,65.083727 C 43.038334,59.858727 43.311224,55.399128 43.092474,55.173508 C 41.959294,54.00471 34.380784,57.596604 30.181984,61.292532 C 15.100004,74.56822 18.221664,98.191286 36.181864,106.69642 C 42.579344,109.72598 44.094704,109.75515 43.313334,106.83373 z M 58.302174,107.59791 C 64.049444,105.19654 69.078684,100.60516 72.203034,94.907279 C 74.704104,90.34608 75.119354,88.509698 75.102724,82.083727 C 75.082474,74.25795 73.935814,70.910603 69.029924,64.356023 C 66.440614,60.896543 59.886044,56.639826 55.478674,55.555477 L 52.775484,54.890409 L 53.301954,73.737068 C 53.591514,84.10273 53.435404,96.296226 52.955034,100.83373 C 51.980144,110.04256 52.097124,110.19054 58.302174,107.59791 z M 89.263484,106.02126 C 87.345104,104.3369 84.478924,100.36405 82.894184,97.192706 L 80.012844,91.426638 L 77.905294,96.005186 C 76.746144,98.523376 73.954964,102.49623 71.702674,104.83373 L 67.607614,109.08373 L 80.179534,109.08373 L 92.751454,109.08373 L 89.263484,106.02126 z M 106.44347,82.333417 L 107.4772,55.140079 L 104.68185,55.606474 C 94.409414,58.129681 85.991234,68.580387 84.945994,80.107469 C 83.967274,90.900988 89.132404,100.43345 99.037924,106.11469 C 102.24031,107.9514 105.96024,109.32344 107.14337,108.78262 C 109.16472,107.85863 106.44347,101.64649 106.44347,82.333417 z M 124.55511,106.64795 C 133.3626,102.18486 138.65244,94.319189 139.43935,84.516017 C 140.37373,72.875534 134.35972,62.170899 124.23746,57.457428 C 121.45687,56.162638 117.2551,55.39422 116.7051,55.388847 C 116.06288,55.382573 118.06791,65.186909 118.06791,82.526755 C 118.06791,103.83314 116.71407,109.2314 117.72671,109.2314 C 118.4325,109.2314 121.91139,107.98763 124.55511,106.64795 z M 140.02546,108.33373 C 140.27937,107.92123 140.79976,105.33373 141.1819,102.58373 C 141.87332,97.607936 141.86822,97.595836 140.12814,100.08373 C 139.16645,101.45873 137.00933,104.04623 135.33456,105.83373 L 132.28952,109.08373 L 135.92667,109.08373 C 137.9271,109.08373 139.77156,108.74623 140.02546,108.33373 z M 87.165894,60.668515 C 92.222164,54.498009 101.27728,49.917127 109.59412,49.322333 C 113.21737,49.063209 117.98185,49.331521 120.18185,49.91858 L 124.18185,50.98596 L 119.29368,46.497337 C 116.60518,44.028594 110.65623,40.219258 106.07378,38.032146 C 98.100774,34.226784 97.782874,33.948258 98.689794,31.562866 C 104.0825,17.378935 116.10031,10.737795 129.38579,14.59999 C 147.5877,19.89143 153.28495,43.376529 139.49228,56.260808 C 136.66594,58.901009 136.62572,59.068424 138.22962,61.516282 C 140.23935,64.583526 142.03076,63.910133 146.59643,58.371193 C 152.17564,51.60264 154.04744,46.423473 154.10922,37.583727 C 154.17578,28.060161 152.09036,22.65196 145.66247,15.678525 C 136.40938,5.6401074 121.74938,2.6161685 109.59537,8.2389134 C 100.84172,12.288565 93.533634,21.047592 91.369134,30.083727 C 90.777274,32.554536 90.647124,32.583727 80.222354,32.583727 L 69.674424,32.583727 L 68.542814,29.083727 C 65.377454,19.293423 59.403424,12.319028 50.681864,8.2318984 C 40.203744,3.3216064 26.288164,5.1904955 17.350014,12.70843 C 2.7884555,24.956261 2.0255355,48.127095 15.774854,60.548773 L 19.808274,64.192732 L 21.838024,61.612323 L 23.867774,59.031915 L 20.177654,54.947385 C 15.297904,49.546092 13.398224,44.797962 13.370964,37.934526 C 13.312604,23.239422 25.801844,11.887423 40.372934,13.391292 C 49.995504,14.384429 57.853574,20.650344 61.132924,29.945032 C 62.504814,33.83337 62.486504,34.216291 60.902544,34.764222 C 55.182884,36.742792 46.394194,41.654355 41.384104,45.672119 C 38.195334,48.2293 35.745634,50.480834 35.940334,50.675528 C 36.135024,50.870223 38.069014,50.539396 40.238094,49.940359 C 45.910994,48.37366 56.320144,49.39901 61.990694,52.083093 C 68.201534,55.022914 75.040784,61.902751 77.858744,68.045313 L 80.085244,72.898628 L 81.856414,68.942598 C 82.830554,66.766781 85.219824,63.043444 87.165894,60.668515 z M 47.677234,34.967809 C 52.047534,32.556564 55.636424,30.234385 55.652554,29.807411 C 55.668674,29.380438 53.718234,27.067471 51.318254,24.667485 C 44.689954,18.039185 36.647404,16.933919 27.927594,21.452971 C 18.485964,26.34611 15.831234,40.956559 22.839014,49.458215 L 25.929904,53.207998 L 32.830564,46.279944 C 37.178414,41.914838 42.670754,37.730054 47.677234,34.967809 z M 138.41766,48.906756 C 140.74034,45.396958 141.18185,43.668197 141.18185,38.083487 C 141.18185,30.484562 138.94966,26.176326 132.8453,21.993551 C 127.65133,18.43459 117.60022,18.538387 112.10882,22.207696 C 109.94899,23.650879 107.386,26.209452 106.41329,27.893413 L 104.64472,30.955162 L 111.91329,34.760837 C 116.39425,37.106979 122.05821,41.338644 126.68185,45.794732 C 130.80685,49.770252 134.51297,53.036625 134.91766,53.053339 C 135.32236,53.070052 136.89736,51.20409 138.41766,48.906756 z "
     id="path2235"
     sodipodi:nodetypes="cscccsssscccccsssssscccssccssccccsssccccccccsccsscccsccscccsccccsscccccccccssssccsssssccssccccssssccssscccscccccccccccccsssccsssssccsscccccscccsssssssssscccsscccccsssssssscccccssscccccssscccssc" />
</svg>
